<svg width="1008" height="388" viewBox="0 0 1008 388" fill="none" xmlns="http://www.w3.org/2000/svg">
<path d="M148.899 384C120.048 384 94.437 378.962 72.0655 368.887C49.8163 358.691 32.2736 344.671 19.4375 326.827C6.72367 308.983 0.244497 288.468 0 265.283H99.0213C99.388 278.15 104.4 288.408 114.058 296.055C123.838 303.702 135.451 307.526 148.899 307.526C159.29 307.526 168.458 305.341 176.405 300.971C184.351 296.48 190.585 290.168 195.109 282.035C199.632 273.902 201.832 264.434 201.71 253.63C201.832 242.705 199.632 233.237 195.109 225.225C190.585 217.092 184.351 210.841 176.405 206.471C168.458 201.98 159.29 199.734 148.899 199.734C138.141 199.734 128.178 202.344 119.009 207.564C109.963 212.662 103.3 219.763 99.0213 228.867L9.53538 211.387L24.2052 6H276.526V86.8439H107.823L100.488 169.145H102.689C108.557 157.855 118.703 148.509 133.129 141.104C147.554 133.578 164.302 129.815 183.373 129.815C205.744 129.815 225.671 134.974 243.152 145.292C260.756 155.61 274.631 169.873 284.778 188.081C295.047 206.168 300.12 227.046 299.998 250.717C300.12 276.694 293.885 299.757 281.294 319.908C268.824 339.936 251.282 355.656 228.666 367.066C206.05 378.355 179.461 384 148.899 384Z" fill="#2962FF" fill-opacity="0.2"/>
<path d="M504 388C470.257 387.879 441.11 380.053 416.558 364.523C392.007 348.994 373.079 326.609 359.776 297.37C346.472 268.13 339.881 233.067 340.002 192.18C340.123 151.172 346.774 116.351 359.957 87.7186C373.261 59.0857 392.128 37.3077 416.558 22.3846C441.11 7.46154 470.257 0 504 0C537.743 0 566.89 7.52221 591.442 22.5666C615.993 37.4897 634.921 59.2677 648.224 87.9006C661.528 116.533 668.119 151.293 667.998 192.18C667.998 233.31 661.346 268.494 648.043 297.734C634.739 326.973 615.812 349.358 591.26 364.887C566.83 380.296 537.743 388 504 388ZM504 305.741C521.416 305.741 535.687 296.642 546.814 278.443C558.061 260.123 563.625 231.368 563.504 192.18C563.504 166.58 560.964 145.652 555.884 129.394C550.805 113.136 543.79 101.125 534.84 93.3602C525.891 85.4741 515.611 81.531 504 81.531C486.584 81.531 472.373 90.3877 461.368 108.101C450.362 125.815 444.738 153.841 444.496 192.18C444.375 218.265 446.855 239.74 451.934 256.604C457.014 273.347 464.028 285.722 472.978 293.73C482.049 301.737 492.389 305.741 504 305.741Z" fill="#2962FF" fill-opacity="0.2"/>
<path d="M856.216 383C827.475 383 801.941 377.977 779.614 367.931C757.405 357.763 739.947 343.783 727.24 325.99C714.532 308.198 708.119 287.742 708 264.624H807.761C807.879 271.765 810.017 278.18 814.174 283.869C818.449 289.437 824.269 293.794 831.632 296.941C838.995 300.088 847.427 301.662 856.928 301.662C866.073 301.662 874.149 300.028 881.156 296.759C888.163 293.37 893.626 288.71 897.545 282.779C901.464 276.849 903.364 270.07 903.246 262.445C903.364 254.94 901.108 248.283 896.476 242.473C891.963 236.663 885.609 232.125 877.415 228.856C869.22 225.588 859.779 223.954 849.09 223.954H812.036V154.236H849.09C858.947 154.236 867.617 152.602 875.099 149.334C882.7 146.066 888.579 141.527 892.735 135.717C897.011 129.907 899.089 123.25 898.97 115.745C899.089 108.483 897.367 102.068 893.804 96.5C890.241 90.9322 885.253 86.5748 878.84 83.4278C872.546 80.2807 865.242 78.7072 856.928 78.7072C847.902 78.7072 839.826 80.3412 832.701 83.6093C825.694 86.8774 820.171 91.4164 816.133 97.2262C812.095 103.036 810.017 109.693 809.898 117.198H715.126C715.244 94.4423 721.361 74.3498 733.475 56.9201C745.707 39.4905 762.453 25.813 783.711 15.8878C804.97 5.96261 829.375 1 856.928 1C883.887 1 907.699 5.66001 928.364 14.98C949.148 24.3001 965.359 37.1302 976.997 53.4705C988.755 69.6898 994.574 88.2693 994.455 109.209C994.693 130.028 987.686 147.094 973.434 160.409C959.302 173.723 941.369 181.591 919.635 184.011V186.916C949.088 190.184 971.237 199.383 986.083 214.513C1000.93 229.522 1008.23 248.404 1007.99 271.16C1008.11 292.947 1001.7 312.253 988.755 329.077C975.928 345.901 958.055 359.095 935.133 368.657C912.331 378.219 886.025 383 856.216 383Z" fill="#2962FF" fill-opacity="0.2"/>
</svg>
