<svg width="128" height="86" viewBox="0 0 128 86" fill="none" xmlns="http://www.w3.org/2000/svg">
<path d="M30.6512 85.221C20.9554 85.221 13.4229 82.91 8.05376 78.288C2.68459 73.6141 0 67.6679 0 60.4493C0 52.6075 3.31012 46.4795 9.93036 42.0652C16.6027 37.651 25.8294 35.4438 37.6103 35.4438H53.6396V27.4203C53.6396 22.9541 52.0236 19.2669 48.7917 16.3587C45.6119 13.4505 41.1289 11.9964 35.3427 11.9964C29.6086 11.9964 24.8911 13.3986 21.19 16.2029C17.541 18.9553 15.5602 22.3828 15.2474 26.4855H1.72022C1.98086 21.4481 3.5447 16.9819 6.41173 13.087C9.27876 9.1401 13.1884 6.02415 18.1405 3.73913C23.0926 1.45411 28.8267 0.311594 35.3427 0.311594C42.0151 0.311594 47.5927 1.55797 52.0757 4.05072C56.5587 6.49155 59.8689 9.86715 62.0061 14.1775C65.3423 9.76328 69.4343 6.30978 74.2822 3.81703C79.1822 1.27234 84.5775 0 90.4679 0C98.1307 0 104.777 1.81763 110.407 5.4529C116.037 9.08816 120.363 14.1516 123.387 20.6431C126.462 27.1347 128 34.6389 128 43.1558V46.817H66.2285C66.5412 54.8665 68.8609 61.41 73.1875 66.4475C77.5141 71.4849 83.587 74.0036 91.4062 74.0036C97.2967 74.0036 102.092 72.6534 105.794 69.9529C109.547 67.2524 112.049 63.7729 113.3 59.5145H126.593C125.55 64.7597 123.387 69.3816 120.103 73.3804C116.819 77.3273 112.7 80.4173 107.748 82.6504C102.848 84.8835 97.4009 86 91.4062 86C84.369 86 78.1918 84.5719 72.8748 81.7156C67.6099 78.8074 63.3614 74.8605 60.1295 69.875C55.1252 80.1057 45.2991 85.221 30.6512 85.221ZM66.3848 35.4438H114.707C113.978 28.2252 111.449 22.4867 107.123 18.2283C102.796 13.9698 97.2445 11.8406 90.4679 11.8406C83.6913 11.8406 78.1657 13.9698 73.8913 18.2283C69.6168 22.4867 67.1146 28.2252 66.3848 35.4438ZM53.6396 46.817H37.6103C21.607 46.817 13.6054 51.413 13.6054 60.6051C13.6054 64.9155 15.1171 68.1353 18.1405 70.2645C21.216 72.3418 25.3863 73.3804 30.6512 73.3804C36.0725 73.3804 40.4773 72.4457 43.8656 70.5761C47.2539 68.6546 49.73 66.1359 51.2938 63.0199C52.8577 59.904 53.6396 56.5543 53.6396 52.971V46.817Z" fill="#2962FF"/>
</svg>
