<svg width="48" height="48" viewBox="0 0 48 48" fill="none" xmlns="http://www.w3.org/2000/svg">
<path d="M11.4942 39.7101C7.85828 39.7101 5.0336 38.8502 3.02016 37.1304C1.00672 35.3913 0 33.1787 0 30.4928C0 27.5749 1.24129 25.2947 3.72389 23.6522C6.22602 22.0097 9.68601 21.1884 14.1038 21.1884H20.1148V18.2029C20.1148 16.5411 19.5089 15.1691 18.2969 14.087C17.1045 13.0048 15.4233 12.4638 13.2535 12.4638C11.1032 12.4638 9.33415 12.9855 7.94624 14.029C6.57789 15.0531 5.83506 16.3285 5.71778 17.8551H0.645082C0.742822 15.9807 1.32926 14.3188 2.4044 12.8696C3.47954 11.401 4.94563 10.2415 6.80269 9.3913C8.65974 8.54106 10.81 8.11594 13.2535 8.11594C15.7557 8.11594 17.8473 8.57971 19.5284 9.50725C21.2095 10.4155 22.4508 11.6715 23.2523 13.2754C24.5034 11.6329 26.0379 10.3478 27.8558 9.42029C29.6933 8.47343 31.7166 8 33.9255 8C36.799 8 39.2914 8.67633 41.4026 10.029C43.5137 11.3816 45.1362 13.2657 46.27 15.6812C47.4233 18.0966 48 20.8889 48 24.058V25.4203H24.8357C24.953 28.4155 25.8228 30.8502 27.4453 32.7246C29.0678 34.599 31.3451 35.5362 34.2773 35.5362C36.4863 35.5362 38.2847 35.0338 39.6726 34.029C41.08 33.0242 42.0183 31.7295 42.4875 30.1449H47.4722C47.0812 32.0966 46.27 33.8164 45.0385 35.3043C43.807 36.7729 42.2627 37.9227 40.4056 38.7536C38.5681 39.5845 36.5254 40 34.2773 40C31.6384 40 29.3219 39.4686 27.328 38.4058C25.3537 37.3237 23.7605 35.8551 22.5486 34C20.672 37.8068 16.9872 39.7101 11.4942 39.7101ZM24.8943 21.1884H43.0153C42.7416 18.5024 41.7935 16.3671 40.171 14.7826C38.5486 13.1981 36.4667 12.4058 33.9255 12.4058C31.3842 12.4058 29.3122 13.1981 27.7092 14.7826C26.1063 16.3671 25.168 18.5024 24.8943 21.1884ZM20.1148 25.4203H14.1038C8.10263 25.4203 5.10202 27.1304 5.10202 30.5507C5.10202 32.1546 5.66891 33.3527 6.80269 34.1449C7.95602 34.9179 9.51985 35.3043 11.4942 35.3043C13.5272 35.3043 15.179 34.9565 16.4496 34.2609C17.7202 33.5459 18.6487 32.6087 19.2352 31.4493C19.8216 30.2899 20.1148 29.0435 20.1148 27.7101V25.4203Z" fill="#2962FF"/>
</svg>
